<svg id="Layer_1" data-name="Layer 1" xmlns="http://www.w3.org/2000/svg" viewBox="0 0 450 541"><defs><style>.cls-1{fill:#fff;}</style></defs><title>logo-blanco</title><path class="cls-1" d="M225.37,60.3A123.15,123.15,0,1,0,348.52,183.45,123.28,123.28,0,0,0,225.37,60.3ZM344.85,183.45A119.48,119.48,0,1,1,225.37,64,119.61,119.61,0,0,1,344.85,183.45Z"/><path class="cls-1" d="M249.63,78.65a1.76,1.76,0,0,0-.3-.06c-.81-.19-1.66-.38-2.52-.55a28.84,28.84,0,0,0-10.21-1.86c-.75,0-1.5,0-2.24.09-3-.25-6.05-.38-9-.38a107.21,107.21,0,0,0-37.06,6.56,1.83,1.83,0,0,0,.63,3.56,1.67,1.67,0,0,0,.63-.11,103.46,103.46,0,0,1,34.07-6.31A16.33,16.33,0,0,0,221.72,81c-5,4.29-7.9,9.88-7.87,15.33a19,19,0,0,0,3.86,11.25,1.84,1.84,0,0,0,2.57.36,1.85,1.85,0,0,0,.36-2.58,15.25,15.25,0,0,1-3.12-9c0-4.37,2.38-8.93,6.59-12.52a18.59,18.59,0,0,1,10.06-3.83c1.24.11,2.49.24,3.74.39a19.64,19.64,0,0,0-7.43,4.59c-3.52,3.55-5.13,8.38-4.77,14.33a1.83,1.83,0,0,0,1,1.51,1.77,1.77,0,0,0-.3.31,1.9,1.9,0,0,0-.33,1.37c.07.41.14.83.22,1.26a1.83,1.83,0,0,0,1.8,1.5,1.87,1.87,0,0,0,.34,0,1.84,1.84,0,0,0,1.47-2.15c-.07-.39-.14-.77-.2-1.15a1.82,1.82,0,0,0-1-1.32,1.82,1.82,0,0,0,.66-1.52c-.29-4.86,1-8.74,3.7-11.52,4.84-4.9,13-5.28,15.38-5.28h.34c2.48.58,5,1.26,7.46,2h-.71a23.24,23.24,0,0,0-3.65.29c-5.75.91-10.69,4-13.21,8.33-3,5.11-2.2,12,1.82,15.63a1.85,1.85,0,0,0,2.6-.13,1.85,1.85,0,0,0-.13-2.6c-2.78-2.52-3.28-7.38-1.12-11,2-3.37,5.94-5.82,10.62-6.56a19.07,19.07,0,0,1,3.13-.25A23.61,23.61,0,0,1,273.08,96a28.21,28.21,0,0,1,6.33,21.73,27.18,27.18,0,0,1-6.9,15.34,36.81,36.81,0,0,1-26,11.37c-.62,0-1.24,0-1.85-.06-6.6-.42-17.07-3.59-26.31-6.38l-.07,0c-5.18-1.56-10.07-3-13.8-3.89a128.88,128.88,0,0,0-28.77-3.5c-13.56,0-26.45,2.43-44.32,8.37a103,103,0,0,1,14.12-22.08,1.74,1.74,0,0,0,.39,0,59.89,59.89,0,0,1,12-1c7.41,0,19.58.89,35.49,5.1a1.58,1.58,0,0,0,.47.07,1.84,1.84,0,0,0,.47-3.62c-16.39-4.34-28.84-5.26-36.41-5.26a82,82,0,0,0-8.58.43,103.52,103.52,0,0,1,13-11.71h.21a2.19,2.19,0,0,0,.36,0,36.51,36.51,0,0,1,7.35-.71c6,0,12.61,1.26,20.2,3.86,4,1.36,7.91,3,11.75,4.51,5,2,10.18,4.12,15.49,5.73a61.79,61.79,0,0,0,17.82,2.9,39.11,39.11,0,0,0,11.83-1.73,18.05,18.05,0,0,0,8.06-4.69,10.06,10.06,0,0,0,2.56-9.59,7.65,7.65,0,0,0-7.11-5.4,6.16,6.16,0,0,0-1.72.24,1.84,1.84,0,0,0,.52,3.6,1.75,1.75,0,0,0,.51-.07,2.32,2.32,0,0,1,.7-.1,4.06,4.06,0,0,1,3.58,2.8,6.48,6.48,0,0,1-1.74,6,14.52,14.52,0,0,1-6.47,3.68,35.71,35.71,0,0,1-10.73,1.56,58.06,58.06,0,0,1-16.75-2.75c-5.14-1.56-10.24-3.62-15.17-5.61-3.89-1.58-7.9-3.2-11.94-4.58-8-2.74-15-4.07-21.39-4.07-.57,0-1.14,0-1.71,0a104.93,104.93,0,0,1,10.2-5.89c.86-.43,1.77-.87,2.7-1.31a1.84,1.84,0,0,0-.78-3.5,1.92,1.92,0,0,0-.78.17c-.92.44-1.86.89-2.8,1.36a107.53,107.53,0,0,0-58.56,108.06,1.8,1.8,0,0,0-.28,1.46,6.13,6.13,0,0,0,.66,1.59A107.7,107.7,0,0,0,225.37,291c2.78,0,5.6-.11,8.38-.33h.15a107.81,107.81,0,0,0,29.83-6.77,1.74,1.74,0,0,0,.71-.22l.15-.1.12-.07a107.75,107.75,0,0,0,23.19-12.57,1.64,1.64,0,0,0,.51-.37,107,107,0,0,0,15.75-13.89,1.84,1.84,0,1,0-2.7-2.5,104,104,0,0,1-9.76,9.21c6.59-16.37,6.91-30.11.94-40.87-8.48-15.29-27.05-19.87-33.43-21,2.74-4,10.14-8.06,12.86-9.34a1.84,1.84,0,0,0-.78-3.5,1.94,1.94,0,0,0-.63.11A34.18,34.18,0,0,1,259,191.06,20.11,20.11,0,0,1,243.12,184c.3,0,.59.05.87.05a7.58,7.58,0,0,0,2.14-.3c2.4-.68,4.24-2.48,5.46-5.33a4.79,4.79,0,0,0-.39-5.11c-1.55-2-5.13-3-10.63-3-1.63,0-3.39.09-5.23.27,9-13.34,34-14.39,41.49-14.39,1.46,0,2.42,0,2.53,0h.11a1.83,1.83,0,0,0,.36-3.63c-6.86-1.42-9.6-3.25-10.65-4.27,9.88-3.63,16.73-9.36,20.38-17,4.93-10.37,2.77-22.07.75-28.8a103.58,103.58,0,0,1,36.95,101.14,53.73,53.73,0,0,0-32.68-10.63,66.06,66.06,0,0,0-17.87,2.52,1.81,1.81,0,0,0-1.1.87,1.83,1.83,0,0,0,1.6,2.73,2,2,0,0,0,.49-.06,62.94,62.94,0,0,1,16.83-2.38,50.22,50.22,0,0,1,31.87,10.93,104.18,104.18,0,0,1-21.92,43.23,1.83,1.83,0,0,0,1.4,3,1.83,1.83,0,0,0,1.4-.64A107.63,107.63,0,0,0,249.63,78.65Zm16.42,66.81a1.84,1.84,0,0,0-1.26,1.58c-.06.75.08,3.24,4.26,5.66-12.28.91-32.32,4.69-38.73,19.34a1.82,1.82,0,0,0,.23,1.85,1.85,1.85,0,0,0,1.45.72l.29,0a57.33,57.33,0,0,1,8.33-.65c4.1,0,6.9.57,7.67,1.57.1.12.34.43-.08,1.41a5.17,5.17,0,0,1-3.07,3.25,4.47,4.47,0,0,1-1.17.16,8.93,8.93,0,0,1-4.3-1.45,1.79,1.79,0,0,0-1-.33,1.83,1.83,0,0,0-1.16.41,1.86,1.86,0,0,0-.53,2.15c2.16,5,9.26,13.58,22.18,13.58.61,0,1.23,0,1.85-.06-3.51,2.73-5.61,5.38-6.23,7.87a1.82,1.82,0,0,0,1.58,2.27,57.87,57.87,0,0,1,13.17,3.47c6.44,2.52,15.13,7.36,20,16.07,6.1,11,4.82,25.73-3.8,43.72A102.53,102.53,0,0,1,275,274.68a35.44,35.44,0,0,0,7.59-19.91,38.82,38.82,0,0,0-.22-7.47,1.71,1.71,0,0,0-.14-1c-4.66-30.35-44.5-43.63-44.9-43.76a1.79,1.79,0,0,0-.57-.09,1.85,1.85,0,0,0-1.32.56,1.87,1.87,0,0,0-.41,1.9c0,.06,2.13,6.18.63,18.09-6.58-1.15-14.6-11.55-17.18-15.53a1.83,1.83,0,0,0-1.45-.84h0a1.9,1.9,0,0,0-1.53.69,61.46,61.46,0,0,0-7,11.78c-1.3-3-2.88-7.91-1.53-11.67a1.84,1.84,0,0,0-3-2c-.91.85-22.32,21.14-20.28,46,1,12.43,7.78,23.73,20.11,33.61a103,103,0,0,1-16.46-5,1.52,1.52,0,0,0-.29-.41c-5.33-5.55-11.93-15.64-13.06-32.19-1.19-17.7,6.26-31.32,22.18-40.51a74.88,74.88,0,0,1,24.81-8.65,1.84,1.84,0,0,0,.79-3.35,70.21,70.21,0,0,0-32.41-12c17.17-20.32,45.06-24.49,45.34-24.53a1.84,1.84,0,0,0,.76-3.35c-19.12-12.76-39.63-19.23-60.95-19.23-3.2,0-6.47.15-9.7.44a110.91,110.91,0,0,0-36.39,9.76c.33-.86.67-1.73,1-2.6,23.64-8.12,36.27-9.24,46.39-9.24a125,125,0,0,1,27.91,3.39c3.62.83,8.47,2.29,13.6,3.85,9.45,2.86,20.14,6.09,27.16,6.54.68,0,1.39.07,2.09.07a40.57,40.57,0,0,0,28.63-12.54,30.91,30.91,0,0,0,7.87-17.41,32,32,0,0,0-7.21-24.59A24.9,24.9,0,0,0,274,91.69a102.94,102.94,0,0,1,11.43,7.06,1.92,1.92,0,0,0,.08,1.06c2,5.2,6.09,18.51.72,29.83C282.8,136.89,276,142.21,266.05,145.46Zm-50.12,98.91a45.07,45.07,0,0,1,0-17.17,1.83,1.83,0,0,0-.83-1.9A1.83,1.83,0,0,0,216.7,224c.28-1,.49-1.55.53-1.66a1.84,1.84,0,0,0-1-2.38,1.88,1.88,0,0,0-.66-.12,1.85,1.85,0,0,0-1.71,1.17c0,.08-.3.78-.64,2A1.83,1.83,0,0,0,214,225a1.84,1.84,0,0,0-1.64,1.45,51.07,51.07,0,0,0-.87,7.85l-2.6-2.72a1.76,1.76,0,0,0-.69-.43,61.77,61.77,0,0,1,8.71-19.55c2.55,3.51,8.4,10.86,14.64,13.81Zm-8.46,1.84a36.85,36.85,0,0,1-.08-10.81l4.21,4.38a45.75,45.75,0,0,0,6.77,20.71,1.82,1.82,0,0,0,1.56.87,1.83,1.83,0,0,0,1.56-2.8,42.91,42.91,0,0,1-4.45-9.77L235,227a111.12,111.12,0,0,1-6.63,22.24c-3.19,7.86-4.81,15-4.81,21.29C214.4,263.72,209,255.54,207.47,246.21Zm55.31.1a1.83,1.83,0,0,0-1.83-1.65h-.18a1.85,1.85,0,0,0-1.65,2,60,60,0,0,1-1.23,18.58l-27.77-10.14c.51-1.49,1.07-3,1.68-4.51a121.56,121.56,0,0,0,6-18.69,2.35,2.35,0,0,0,.53.09l16.94.31c.52,1.15.94,2.15,1.3,3.12a1.84,1.84,0,0,0,1.72,1.2,2,2,0,0,0,.64-.11,1.83,1.83,0,0,0,1.08-2.36,46.26,46.26,0,0,0-1.84-4.33,1.32,1.32,0,0,0-.08-.19c-.49-1-1-2-1.59-3l5.19-6.4c9.5,7.74,15.14,16.49,16.78,26L262.79,257.6A58.29,58.29,0,0,0,262.78,246.31Zm-8.32-23a49.27,49.27,0,0,0-9.69-11,1.82,1.82,0,0,0-2.57.32,1.84,1.84,0,0,0,.31,2.58,49.23,49.23,0,0,1,10.87,13.4l-14.84-.28c1.94-10.34,1.38-17.46.76-21.13A92.76,92.76,0,0,1,258.77,218ZM196.09,221a79.29,79.29,0,0,1,6.7-9,31,31,0,0,0,3.78,11.59c-3,8.09-3.91,15.88-2.73,23.16,1.8,11.17,8.55,20.75,20.07,28.47a22.88,22.88,0,0,0,5.23,12c-1.33.05-2.57.08-3.77.08a105.44,105.44,0,0,1-13.51-.88c-15.21-10.23-23.47-22.1-24.55-35.29C186.32,239.16,191.54,228.14,196.09,221ZM229,258.64l28,10.22c-.64,2.4-1.41,4.87-2.29,7.32a1.83,1.83,0,0,0,1.1,2.35,1.88,1.88,0,0,0,.62.11,1.85,1.85,0,0,0,1.73-1.21,92.41,92.41,0,0,0,2.8-9.23L261,268c.43-1.77.8-3.59,1.09-5.36l.1-.06,16.68-12.08a36.75,36.75,0,0,1,0,4.07A31.83,31.83,0,0,1,263,280.22a103.85,103.85,0,0,1-28.81,6.72C232.14,285.51,223.6,278.27,229,258.64ZM128.73,219.2c.28-.26,27.93-25.67,59.12-25.67a54.75,54.75,0,0,1,9,.74l.31,0a1.9,1.9,0,0,0,1.19-.44,1.8,1.8,0,0,0,1.22.94q.75.16,1.5.36a1.74,1.74,0,0,0,.45.06,1.8,1.8,0,0,0,1.27-.54A1.84,1.84,0,0,0,204,196l.8.26a2,2,0,0,0,.59.1,1.84,1.84,0,0,0,1.64-2.66,1.79,1.79,0,0,0-1.06-.92l-.85-.28a1.77,1.77,0,0,0-1.83.45,1.6,1.6,0,0,0-.2-.51,1.83,1.83,0,0,0-1.12-.84c-.54-.14-1.07-.27-1.61-.39a2.58,2.58,0,0,0-.39,0,1.9,1.9,0,0,0-1.2.44,1.81,1.81,0,0,0-1.32-1,57.67,57.67,0,0,0-9.63-.8c-15.84,0-30.46,6.21-39.93,11.42a120.19,120.19,0,0,0-21.2,14.78,104,104,0,0,1-3.54-13.87,11.91,11.91,0,0,0,4.5.81c3.5,0,7.76-1.19,12.69-3.55.69-.33,1.69-.94,2.57-1.48l1.14-.68c12.85-7.35,25.78-11.08,38.42-11.08,1,0,1.94,0,2.89.07a1.62,1.62,0,0,0,.4,0l.28,0a65.38,65.38,0,0,1,29.68,9.27,78.41,78.41,0,0,0-21.39,8.19c-17,9.81-25.37,25-24.08,44,.77,11.32,4,21.1,9.65,29.11A105,105,0,0,1,128,219.62,1.83,1.83,0,0,0,128.73,219.2Zm66.7-67.44a1.84,1.84,0,0,0,.15-3.67c-3.75-.31-7.48-.46-11.1-.46-15.27,0-29.32,2.72-41.77,8.08A79.26,79.26,0,0,0,122.63,168a103.81,103.81,0,0,1,4-17A105.34,105.34,0,0,1,165.1,140c3.11-.28,6.26-.42,9.34-.42,19.19,0,37.73,5.44,55.12,16.16-9.47,2.2-30.82,8.95-44.71,27-.74,0-1.49,0-2.22,0-16.87,0-31.27,6.2-40.37,11.41l-1.16.69-.06,0c-.8.49-1.73,1.06-2.25,1.31-4.42,2.11-8.15,3.18-11.09,3.18a8.06,8.06,0,0,1-3.42-.66,4.9,4.9,0,0,1-1.88-1.5,105,105,0,0,1-.91-13.7c0-3.19.16-6.5.47-9.83,19.36-19.35,48.3-22.24,63.84-22.24,4.11,0,7.43.2,9.48.37Z"/><path class="cls-1" d="M225.82,172.22a10.54,10.54,0,0,0-5.5-1.28A37.19,37.19,0,0,0,209,173.21a1.87,1.87,0,0,0-1.16,1.17,1.81,1.81,0,0,0-1-.28,2,2,0,0,0-.64.11l-.83.32a1.84,1.84,0,0,0,.67,3.55,1.79,1.79,0,0,0,.68-.13l.79-.3a1.81,1.81,0,0,0,1.08-1.15,1.79,1.79,0,0,0,1,.29,2,2,0,0,0,.59-.09,33.87,33.87,0,0,1,10.13-2.09,6.94,6.94,0,0,1,3.56.75,2.9,2.9,0,0,1,1.4,2.25c.19,1.22-.16,1.71-.48,2-.78.7-2.39,1.07-4.65,1.07a54.34,54.34,0,0,1-13.37-2.26,2,2,0,0,0-.48-.07,1.84,1.84,0,0,0-.49,3.62,57.14,57.14,0,0,0,14.21,2.38c3.31,0,5.74-.67,7.23-2a5.55,5.55,0,0,0,1.66-5.32A6.54,6.54,0,0,0,225.82,172.22Z"/><path class="cls-1" d="M207.9,153.33c5.2.87,10.59,2,16,3.46a1.58,1.58,0,0,0,.47.07,1.84,1.84,0,0,0,.47-3.62c-5.52-1.46-11-2.65-16.35-3.54l-.3,0a1.84,1.84,0,0,0-.31,3.65Z"/><path class="cls-1" d="M199.79,152.19l1.54.18h.22a1.84,1.84,0,0,0,.23-3.66l-1.57-.18H200a1.84,1.84,0,0,0-.23,3.66Z"/><path class="cls-1" d="M255.72,124.94a38,38,0,0,1-14.8,2.73,63.69,63.69,0,0,1-12.68-1.39c-5.25-1.08-10.51-2.66-15.6-4.2-2.3-.69-4.89-1.47-7.43-2.18a2.07,2.07,0,0,0-.49-.07,1.84,1.84,0,0,0-.5,3.61c2.45.69,4.94,1.43,7.34,2.16,5.18,1.56,10.52,3.17,15.94,4.28a67.29,67.29,0,0,0,13.42,1.46,41.43,41.43,0,0,0,16.22-3,17.89,17.89,0,0,0,7.6-5.41,10.72,10.72,0,0,0,2.19-7.87,8.32,8.32,0,0,0-.53-1.91,1.83,1.83,0,0,0-3.39,0,1.86,1.86,0,0,0,0,1.41,4.34,4.34,0,0,1,.29,1.07,7,7,0,0,1-1.47,5.09A14.57,14.57,0,0,1,255.72,124.94Z"/><path class="cls-1" d="M200.86,118.75l-.55-.14a2.1,2.1,0,0,0-.43,0,1.83,1.83,0,0,0-.43,3.62l.52.13a1.74,1.74,0,0,0,.45.06,1.84,1.84,0,0,0,.44-3.62Z"/><path class="cls-1" d="M272.92,196.76a1.77,1.77,0,0,0-.64.12c-1.08.4-1.72.68-1.9.76a1.84,1.84,0,0,0,.76,3.51,1.78,1.78,0,0,0,.75-.16s.61-.27,1.67-.67a1.83,1.83,0,0,0,1.08-2.36A1.84,1.84,0,0,0,272.92,196.76Z"/><path class="cls-1" d="M300.75,166.84a1.88,1.88,0,0,0,.57.09,1.84,1.84,0,0,0,1.64-2.67,1.79,1.79,0,0,0-1.07-.91,87.25,87.25,0,0,0-27.06-4.48c-17.42,0-28.08,5.93-28.52,6.18a1.84,1.84,0,0,0,.91,3.44,1.92,1.92,0,0,0,.9-.24c.1-.06,10.21-5.64,26.93-5.64A83,83,0,0,1,300.75,166.84Z"/><path class="cls-1" d="M312,137.19a1.83,1.83,0,1,0-3.22-1.76c-1.78,3.23-7.81,10.76-25.33,10.76-1.17,0-1.86,0-1.87,0h-.1a1.84,1.84,0,0,0-.16,3.67c.22,0,1,.06,2.26.06a51.88,51.88,0,0,0,10-1C302.39,147.14,308.77,143.09,312,137.19Z"/><path class="cls-1" d="M247.47,197.81a1.88,1.88,0,0,0,.62.11,1.84,1.84,0,0,0,.63-3.57c-4.45-1.61-10.31-5-12.91-12.07a1.84,1.84,0,0,0-1.72-1.2,2,2,0,0,0-.64.11,1.85,1.85,0,0,0-1.09,2.36C235.46,191.94,242.28,195.93,247.47,197.81Z"/><path class="cls-1" d="M252.16,199.11c.92.18,1.54.25,1.7.27H254a1.84,1.84,0,0,0,.18-3.67s-.52-.05-1.36-.22l-.35,0A1.85,1.85,0,0,0,250.7,197a1.82,1.82,0,0,0,1.46,2.15Z"/><path class="cls-1" d="M272.22,216.91c.37.21.73.43,1.08.65a1.86,1.86,0,0,0,2.22-.22,1.84,1.84,0,0,0-.13.93,1.81,1.81,0,0,0,.69,1.23c15.41,12,10.21,31.16,10,32a1.84,1.84,0,0,0,1.27,2.26,1.68,1.68,0,0,0,.5.07,1.83,1.83,0,0,0,1.77-1.33c.06-.22,6.11-22.34-11.26-35.87a1.86,1.86,0,0,0-1.13-.39,1.8,1.8,0,0,0-1.26.52,1.84,1.84,0,0,0-.71-2.29c-.39-.24-.78-.48-1.19-.71a1.71,1.71,0,0,0-.91-.25,1.85,1.85,0,0,0-1.6.92,1.9,1.9,0,0,0-.18,1.4A1.85,1.85,0,0,0,272.22,216.91Z"/><path class="cls-1" d="M261.49,239a1.82,1.82,0,0,0-1.77-1.39,1.76,1.76,0,0,0-.46.06,1.87,1.87,0,0,0-1.13.84,1.83,1.83,0,0,0-.2,1.39c.15.6.29,1.2.42,1.82a1.86,1.86,0,0,0,1.8,1.46,2.58,2.58,0,0,0,.38,0,1.84,1.84,0,0,0,1.42-2.18C261.81,240.28,261.66,239.62,261.49,239Z"/><path class="cls-1" d="M201.1,273.26a1.83,1.83,0,0,0,.35,1.36c.56.73,1.15,1.46,1.74,2.17a1.88,1.88,0,0,0,1.41.65,1.83,1.83,0,0,0,1.4-3c-.56-.67-1.11-1.35-1.62-2a1.84,1.84,0,0,0-1.46-.73,1.83,1.83,0,0,0-1.82,1.59Z"/><path class="cls-1" d="M199.64,270.48a1.81,1.81,0,0,0,1.77-1.38,1.78,1.78,0,0,0-.19-1.39c-13.67-23.11.21-46.67.36-46.91a1.84,1.84,0,0,0-.63-2.52,1.85,1.85,0,0,0-2.52.62c-.15.26-15.15,25.69-.38,50.68A1.85,1.85,0,0,0,199.64,270.48Z"/><path class="cls-1" d="M149.54,465.66h-4.08a.45.45,0,0,1-.44-.45v-.67a.45.45,0,0,1,.44-.45h9.92a.45.45,0,0,1,.45.45v.67a.45.45,0,0,1-.45.45h-4.07V480a.46.46,0,0,1-.44.45H150a.46.46,0,0,1-.44-.45Z"/><path class="cls-1" d="M180.83,464.54a.46.46,0,0,1,.44-.45h.89a.45.45,0,0,1,.45.45v9.75c0,2.67,1.66,4.75,4.4,4.75s4.44-2,4.44-4.7v-9.8a.45.45,0,0,1,.44-.45h.89a.46.46,0,0,1,.45.45v9.89a6.2,6.2,0,1,1-12.4,0Z"/><path class="cls-1" d="M219.14,464.54a.45.45,0,0,1,.45-.45h.91a.46.46,0,0,1,.44.45V478.9h6.74a.44.44,0,0,1,.44.44V480a.44.44,0,0,1-.44.45h-8.09a.45.45,0,0,1-.45-.45Z"/><path class="cls-1" d="M254,464.54a.46.46,0,0,1,.44-.45h.89a.45.45,0,0,1,.45.45v9.75c0,2.67,1.66,4.75,4.39,4.75a4.36,4.36,0,0,0,4.45-4.7v-9.8a.45.45,0,0,1,.44-.45H266a.46.46,0,0,1,.45.45v9.89a6.2,6.2,0,1,1-12.4,0Z"/><path class="cls-1" d="M291,464.18a.46.46,0,0,1,.42-.32h.38a.45.45,0,0,1,.4.25L296.82,477h.12l4.56-12.89a.43.43,0,0,1,.4-.25h.37a.45.45,0,0,1,.42.32l3,15.73c.07.32-.07.56-.42.56h-.94a.49.49,0,0,1-.42-.33l-2.08-12.05h-.1l-4.3,12.35a.49.49,0,0,1-.4.26h-.42a.49.49,0,0,1-.4-.26l-4.35-12.35h-.09l-2,12.05a.45.45,0,0,1-.42.33h-.93c-.35,0-.49-.24-.42-.56Z"/><path class="cls-1" d="M108.79,346.24l.09.17a1,1,0,0,0,0-.17Z"/><path class="cls-1" d="M81,367.47l.1,0-.22-.1Z"/><path class="cls-1" d="M111.62,337.38h-.13a16.81,16.81,0,0,0-.51,2.31C112.39,338.72,112.52,338.23,111.62,337.38Z"/><path class="cls-1" d="M56.5,386a1.43,1.43,0,0,0,0,1v-.72C56.49,386.19,56.5,386.11,56.5,386Z"/><path class="cls-1" d="M83.22,367.08l-2.09.37.21.1c.63-.1,1.26-.38,1.88-.44Z"/><path class="cls-1" d="M60.6,366.14h0l0-.07Z"/><path class="cls-1" d="M62,359.83c.1.23.18.44.26.66a2,2,0,0,0,.14-.74Z"/><path class="cls-1" d="M61.4,362.65c-.14.18-.22.34-.16.45a.29.29,0,0,1,0,.09A.55.55,0,0,0,61.4,362.65Z"/><path class="cls-1" d="M59.7,366.38c.21.64.37,1.18.52,1.67q.18-.72.33-1.44Z"/><path class="cls-1" d="M122.54,366.74c.13-.12-.13-.73-.25-.73-1.68-.48-2.32-1.94-3.47-2.91-.39-.36-.9-.73-1-1.09-.26-1-.77-.85-1.54-.48s-1.8.72-3,1.21c.26-1.46.51-2.67.77-3.88.77-2.92,1.67-5.71,2.44-8.62q1.74-6,3.47-12c.26-1,.26-2.06.52-3,.38-1.34,1-2.55,1.41-3.89.64-2.3,1.16-4.61,1.8-6.91l2.31-7.65c.52-1.69,1.16-3.39,1.67-5.09.77-2.55,1.29-5.22,2.19-7.77a3.69,3.69,0,0,0-1.16-4.36l1.54.24a64.47,64.47,0,0,0-5.52-4.13,1,1,0,0,0-1.67.73c-.26,1.34-.52,2.67-.77,4-.13.72-.39,1.45-.52,2.18s.13,1.21,0,1.7l-2.7,10.19a1.26,1.26,0,0,0,.26.73c.77.6.38,1-.13,1.45-.26.25-.64.61-.64,1,0,.73.38,1.46.26,2.07-.65,2.3-1.42,4.61-2.19,6.91,0,0-3.13,8.42-7.12,20.95-.18-.31-.39-.68-.63-1.12-.24,1.13-.49,2.06-.73,3.1.36-.22.66-.42.93-.6-1.49,4.71-3.09,10-4.68,15.54l-.75.47c.21.27.35.46.45.62l-.26.89c-.1.11-.21.21-.32.31-.51-.6.13-1.7-1.28-1.7a16.22,16.22,0,0,1-2.32-.48v-.37c-.25.25-.51.49-.64.61-.77-.12-1.41-.24-1.67-.24-.38.48-.51.85-.77,1-1,.61-1.8.24-2.7-.85.13,1.21-.13,1.58-1,1.33A3.7,3.7,0,0,0,92,366l-4.63.73c-.13,0-.38,0-.38-.12-.9-1.58-1.68-.24-2.57,0-.65-1-1.42-.85-2.58-.36.65.24,1,.36,1.42.48v.34l1.93-.34a3.32,3.32,0,0,1-3.81.81,2.13,2.13,0,0,1-2.11-.81c.26,1.22-.12,1.46-1,1.09l-.77-.36c-.65-.36-1-.36-1.67.36a1.42,1.42,0,0,1-2.32,0,.86.86,0,0,0-.77,0c-.9.37-1.67.85-2.83,1.46.13-1,.13-1.58.26-2.18.77-2.92,1.67-5.83,2.31-8.86a99.87,99.87,0,0,1,2.83-10.68c.39-1.33.52-2.79,1-4.12,1.41-4,2.83-8,4.24-11.89a58.7,58.7,0,0,1,2.57-5.95c1-2.06.9-3.27-1-4.73a41,41,0,0,0-4.75-3.28,1.55,1.55,0,0,0-2.32.49,9.06,9.06,0,0,0-1.54,3.4c-.26,1.82-1.54,3.27-1.41,5.33.13,2.31-1.29,4.74-2.06,7.16l-2.7,9.1c-.25.73-.51,1.46-.77,2.31a5.63,5.63,0,0,0,1.29.36c-1,.73-1.93,1.34-2.83,2.07.51,1,.9,1.82,1.41,2.79-.51-.13-.9-.25-1.28-.37l-.39.37a9.62,9.62,0,0,1,.65,1c-.78.48-1.42.85-2.06,1.21v.36l2.31-.36c.9,1.7.9,1.82-1.54,3.76.13-1,.26-1.82.39-2.67h-.39c-.38.37-.77.73-1.16,1.09h.39c-.13.73-.13,1.94-.51,2.07-1,.48-.78,1.09-.52,1.7a3.41,3.41,0,0,1,.14,1c.48-.1.93-.19,1.53-.29-.36.7-.73,1.29-1.21,2.18-.2-.46-.34-.82-.46-1.15A3,3,0,0,1,60.86,362a1.18,1.18,0,0,1,.54.64A7.27,7.27,0,0,1,62,362c.13-.12.52,0,.78.12s.12.24.12.37l-.12.24c-.39.85-.78,1.7-1.16,2.55-1.23-.47-.22-1.38-.37-2.1a1.51,1.51,0,0,1-.53.4,3,3,0,0,1,.13,1.45c-.07.35-.14.7-.2,1l.84-.79c.13.36.51.72.51,1.09h-.25a.43.43,0,0,0,0,.11l-1.1-.34-.09.46.82.25.36-.33c-.15.92-.5,1.84-.74,2.76H60.6c-.12-.4-.24-.8-.38-1.24-.08.33-.17.67-.26,1a6.58,6.58,0,0,1-1.16,2.06c-.13.12-.77-.12-1.15-.24l-1.16-.37-.39.73h1.16a1.48,1.48,0,0,1-1,.37c-2.31.36-4.5,1.82-7.07.72-.12,0-.38.37-.77.73a11.12,11.12,0,0,0-3.08.73c-1.93.85-3.86.36-5.78.73-1.29.24-2.7,0-4,.36-4.37,1.34-8.74,2.67-13.11,4.13-3.47,1.21-3.21,1.57-.9,4.24a6.6,6.6,0,0,0,2.83,2.07,13.13,13.13,0,0,0,4.37-.25c4.24-.85,8.48-1.82,12.72-2.79,2.57-.6,5.14-1.45,7.71-2.06s5.4-1.09,8.1-1.58a1.79,1.79,0,0,1,.77.25s0,.36-.13.48a1.46,1.46,0,0,1-.64.12c.13.49.39,1,.26,1.34-.39.85-1,1.57-.9,2.67A15,15,0,0,1,56.5,386c.16-.35.52-.56,1.15-.72a3.87,3.87,0,0,0-.9,1.33c-.13.37.12.85.25,1.34l.26.12h-.39a8.1,8.1,0,0,1-.38-1.1v2.07c-.52.12-.9.12-1,.36s0,.61.13.61c1.16.36.77.73.26,1.21-.13.12-.39.37-.39.49.64,1,.26,1.82-.38,2.67-.13.24,0,.72,0,1.09.12,1.09.38,2.18.51,3.27a54.06,54.06,0,0,0,.77,6.31,9.09,9.09,0,0,0,3.21,5.22l4.63,3.28a4,4,0,0,0,5.27-.25,14.45,14.45,0,0,0,1.67-2.18L72.68,409l-.38-.37c-.39.12-.78.24-1.42.49a3.82,3.82,0,0,1,.39-1c.51-1,1-1.94,1.54-2.92.13-.24.26-.48.38-.72.9-1.34,1.93-2.67,2.83-4a4.06,4.06,0,0,0,.39-1.33A73.28,73.28,0,0,1,69,407.87l-.38-.36c.64-.73,1.28-1.46,1.93-2.18a.79.79,0,0,0-.65.24c-1.15,1.09-2.31,2.18-3.59,3.27-.65.49-1.29.61-1.55-.48a21.56,21.56,0,0,1-.9-2.55c-.25-2.55-.51-5.09-.51-7.64s.64-5.1.77-7.65c0-1.45,1.16-2.91.13-4.36-.13-.13.13-.49.26-.73a25.86,25.86,0,0,0,1-2.91c.39-1.82.78-3.64,1-5.46.13-1.1.9-1.34,1.93-1.34a4,4,0,0,0,1.16-.24c2.31-.37,4.62-.85,6.94-1.21,3.34-.49,6.68-.85,10-1.34,1.54-.24,3.08-.73,4.63-.85,3.59-.36,7.19-.61,10.79-.85a4.73,4.73,0,0,1,.53,0c-1.47,5.44-2.89,11.09-4.18,16.78a3.42,3.42,0,0,0-1.36-.56c.38,3.64.38,7-1.41,10.07.18.09.43.24.69.4-.29,1.49-.57,3-.83,4.46l-.12.24a7.17,7.17,0,0,0-.9,1.69,1.92,1.92,0,0,1,.63.38l-.06.37a4.32,4.32,0,0,1-.83.35l-.26-.25c1.3,1.78-.09,3.65.25,5.44,0,.16,0,.32-.07.47a.35.35,0,0,0,0-.08c-.51,2.42-.13,4.73-1.28,6.67a21.73,21.73,0,0,0,.25,3.84c0,.75-.09,1.5-.13,2.24a5,5,0,0,1-.76,1.69c.18.17.51.35.67.53,0,.48,0,.95,0,1.42a8.6,8.6,0,0,0,0,2.09c0,.39,0,.79,0,1.17-1.29,1.1-.13,2.19,0,3.28a8.58,8.58,0,0,0,.13,1.82c.13,1-.13,2.18.38,2.79a3.23,3.23,0,0,1,.64,1.07l0,.28a1.46,1.46,0,0,1-.67,1.08,5.44,5.44,0,0,1,.9.72c-.13.49-.38,1-.26,1.34a45,45,0,0,0,2.19,5.7c.64,1.34,1.28,2.79,2.83,3.52a21.15,21.15,0,0,1,2.31,1.34c.9.48,2.06.12,2.18-.73,0-.37-.25-.73-.12-1.1.51-1.94.25-3.51-2.32-4.12h1.16c-.39-1.46-.77-2.79-1-4.13-.26-1.82-.38-3.63-.64-5.46v-.72c0-1.82.13-3.64,0-5.46,0-.24-.23-.49-.49-.73,1.8-12,5.22-33.75,9.28-54.67l1.49-5.63a.55.55,0,0,1,.38-.49c1.16-.36,2.32-.73,3.47-1,2.06-.36,4.25-.48,6.3-1C121.51,368.32,122,367.35,122.54,366.74Zm-6.09-22.69h.31l-.45.53C116.36,344.41,116.4,344.23,116.45,344.05Zm-2.49,10,.36.3-.45.07Z"/><path class="cls-1" d="M135.52,356.19c.9-1.34,1.54-2.79,2.31-4.13.39-.73.9-1.82,1.55-1.94a5,5,0,0,0,3.21-2.67,23.72,23.72,0,0,1,3.08-4.73c1.16-1.34,1.93-2.91,3-4.37a1.59,1.59,0,0,0-.26-2.18l-.25.24a14,14,0,0,0-6.94-3.88c-.52-.12-1.16.36-1.67.6.64,1.34-.52,2.43-.78,3.64a36.42,36.42,0,0,1-1.54,5.34c-.9,2.55-2.05,5.1-2.95,7.65a28.42,28.42,0,0,0-.77,4.12,8.13,8.13,0,0,0,.64,2.06C134.36,356.55,135,357,135.52,356.19Z"/><path class="cls-1" d="M181.27,363.59a5.75,5.75,0,0,0-.64-2.91c-1.29-2.07-3.6-2.79-5.79-3.52a2.27,2.27,0,0,0-3,1.33,5.42,5.42,0,0,1-3.21,3.4c-.26.12-.65.48-.65.61.39,1.09-.38,1.57-.9,2.3-1.28,1.82-2.44,3.64-3.72,5.46-.39.61-1.16,1.09-1.54,1.7-.9,1.58-1.8,3.15-2.57,4.73a23.64,23.64,0,0,1-2.06,3.28c-1.41,1.45-1.93,3.64-2.83,5.58-.51,1.21-1.15,2.43-1.8,3.64a3.45,3.45,0,0,1-.64.73c.9-1-.13-2.55,1.16-3.28.13,0,0-.36-.13-.61-.39-1-.64-1.82.51-2.54.26-.12.39-.61.39-1a25.78,25.78,0,0,1,.25-3c.65-2.3,1.55-4.49,2.19-6.79a30,30,0,0,0,.26-3.52,21.16,21.16,0,0,0,0-8,1.91,1.91,0,0,0-.65-1,15.69,15.69,0,0,0-7.06-1.94,14.69,14.69,0,0,1,0,2.3c-.26,1.95-.65,3.89-1,5.83-.52,2.43-1,4.85-1.54,7.16-.65,2.79-1.42,5.58-2.19,8.37l-1.32,5c-1.36,1.39-2.72,2.78-4.08,4.13-1.92,1.94-3.85,3.88-5.78,5.7-1.54,1.46-3.21,2.91-4.88,4.37a8,8,0,0,1-4.76,2.06,16.76,16.76,0,0,0,.13-2.55,18.77,18.77,0,0,1,.39-3.88c.64-2.06,1.54-4,2.31-6.07a36.54,36.54,0,0,1,1.93-5.21c1.41-2.43,1.67-5.22,3.08-7.65a16.94,16.94,0,0,0,1.29-3.51c.51-1.22,1-2.43.13-3.77a7.91,7.91,0,0,1-.78-1.45,5.76,5.76,0,0,0-3.72-3.88c-.64-.25-1.67-.49-2.06.6-.64,2.19-1.16,4.37-1.93,6.43-.64,1.7-1.54,3.4-2.18,5.1s-1.29,3.4-1.93,5.09l-2.7,8a20.33,20.33,0,0,0-1,8.74c.39,2.3.65,5.09,3.6,6.55,1.55.73,2.7,2.18,4.24,3a5.92,5.92,0,0,0,4,.73,11.23,11.23,0,0,0,5-3.64c.64-.73.51-2.3,2.44-1.82a5.32,5.32,0,0,1-.51-.73c.64-.85,1.15-1.57,1.8-2.54a6.27,6.27,0,0,1,1.15-.61c-.13-.37-.38-.85-.25-1a13.8,13.8,0,0,0,1.8-3.28,8.47,8.47,0,0,1,1.37-1.56c-.4,1.69-.76,3.39-1.12,5.08-.13.61-.13,1.34-.26,1.94l-1.92,7.28c-.65,2.31-1.16,4.73-1.67,7-1.16,5-2.44,9.95-3.6,14.92-.52,2.31-.9,4.61-1.29,6.92-.51,3.15-1,6.31-1.28,9.46-.13,2.06.38,4.13.38,6.19a57.49,57.49,0,0,1-.51,6.79c-.26,1.82.64,2.92,2.44,3.52.77.25,1.29.73,2.06.12a2,2,0,0,0,.64-2.18,12.33,12.33,0,0,1-.13-2.18c0-1.82,1.29-3.52.9-5.46,0-.25.26-.49.39-.73s.38-.73.51-1.09l2.31-9.47c.65-2.91,1.42-5.82,2.06-8.73.26-1.22.51-2.43.77-3.64.26-1,.52-1.94.77-2.91.39-1.58.77-3.16,1-4.74s2.18-2.67,1.29-4.49c.25-1.33.51-2.67.89-4l.39-.73a32.77,32.77,0,0,0,1.16-3.27,2.37,2.37,0,0,1,2.7-1.82c1.92.12,4,.6,5.52-1.22.13-.12.52-.12.64-.24l2.32-1.46c.64-.48,1.28-1,1.8-1.45l3.08-2.91,3.47-2.92c.13-.12.39-.24.51-.36,1.93-2.43,4.24-4.61,5.79-7.4.9-1.58,2.44-2.91,3.34-4.49,1.41-2.67,2.7-5.46,3.85-8.25.65-1.7.52-3.76,1.42-5.34,1.41-2.67.38-5.22.25-7.76Zm-41.76,30.57c-.78.73-1.68,1.34-2.58,2.07-.12-.13-.25-.25-.38-.37l3.47-3.27a5.52,5.52,0,0,1-.77,1.69Zm-6.69,48.41c-.38,1.46-.64,3-.9,4.61-.38-3.39,1.16-11.89,2.44-13.22a12.21,12.21,0,0,1,0,2.18h.13C134,438.33,133.34,440.39,132.82,442.57Zm2.06-9.46c0,.12-.39.12-.77.24.25-1.57.38-3,.64-4.49.64-3,1.41-6.06,2.18-9.1a33.16,33.16,0,0,1,.9-3.27c.13-.37.52-.61.78-1l.38.36C138,421.71,136.42,427.41,134.88,433.11Zm4.5-18h-.13c-.9-1.21.64-7.76,2.44-10.31C140.92,408.24,140.15,411.64,139.38,415.15Zm2.2-23.59-.28.3a3.24,3.24,0,0,1-1.15.48c.59-.63,1.17-1.27,1.72-1.9C141.77,390.81,141.67,391.19,141.58,391.56Zm9.07,11.12c.47-1.09.83-1.9,1.19-2.69.52-1.09,1-2.19,1.54-3.28a3,3,0,0,1,.52-.85c1.41-1.21,2-2.91,3.08-4.37.13-.24.26-.72.13-.85-1.16-1.33-.13-2.3.51-3.39.9-1.46,1.68-3,2.57-4.49l4.25-6.55c1.28-1.94,2.44-3.89,3.72-5.83a10,10,0,0,1,1-1.33c1,1,1.54.12,2.06-.61,1.28-1.45,2.57-2.91,4-4.61C177.4,371.05,159.59,399.15,150.65,402.68Z"/><path class="cls-1" d="M241.8,359.83l.25.66a2,2,0,0,0,.14-.74Z"/><path class="cls-1" d="M239.48,366.38c.21.64.38,1.18.53,1.67.11-.48.22-1,.32-1.44Z"/><path class="cls-1" d="M240.38,366.14h0l0-.07Z"/><path class="cls-1" d="M288.57,346.24l.1.17,0-.17Z"/><path class="cls-1" d="M236.28,386a1.5,1.5,0,0,0,0,1v-.72C236.27,386.19,236.28,386.11,236.28,386Z"/><path class="cls-1" d="M302.32,366.74c.13-.12-.12-.73-.25-.73-1.67-.48-2.32-1.94-3.47-2.91-.39-.36-.9-.73-1-1.09-.26-1-.77-.85-1.54-.48s-1.8.72-3,1.21c.26-1.46.52-2.67.77-3.88.77-2.92,1.67-5.71,2.44-8.62q1.74-6,3.47-12c.26-1,.26-2.06.52-3,.38-1.34,1-2.55,1.41-3.89.64-2.3,1.16-4.61,1.8-6.91l2.31-7.65c.52-1.69,1.16-3.39,1.67-5.09.78-2.55,1.29-5.22,2.19-7.77a3.69,3.69,0,0,0-1.16-4.36l1.54.24a62.94,62.94,0,0,0-5.52-4.13,1,1,0,0,0-1.67.73c-.26,1.34-.52,2.67-.77,4-.13.72-.39,1.45-.52,2.18s.13,1.21,0,1.7l-2.7,10.19a1.26,1.26,0,0,0,.26.73c.77.6.39,1-.13,1.45-.25.25-.64.61-.64,1,0,.73.39,1.46.26,2.07-.65,2.3-1.42,4.61-2.19,6.91a4.3,4.3,0,0,0-.13,1.34s-3,7.8-7,19.64c-.18-.32-.4-.69-.64-1.15-.25,1.13-.49,2.06-.74,3.1.36-.22.67-.42.94-.61-1.54,4.7-3.2,10-4.85,15.65l-3.26.27a8,8,0,0,0-1.05-.26v-.37l-.65.61c-.77-.12-1.41-.24-1.67-.24a5.42,5.42,0,0,0-.41.6l-2.36.23a4.72,4.72,0,0,1-.7-.71,3.52,3.52,0,0,1,0,.78c-2.72.28-5.18.57-7.41.86-.82-1.08-1.54.08-2.37.3-.65-1-1.42-.85-2.57-.36.64.24,1,.36,1.41.48v.06l-3.32.5a2.73,2.73,0,0,1-.66-.56,3.62,3.62,0,0,1,.07.66l-1.5.25-.37-.18c-.64-.36-1-.36-1.67.36l-.22.22-1.43.28a1.91,1.91,0,0,1-.67-.5.85.85,0,0,0-.77,0c-.9.37-1.67.85-2.82,1.46.12-1,.12-1.58.25-2.18.77-2.92,1.67-5.83,2.32-8.86A102.25,102.25,0,0,1,255,347.57c.39-1.33.52-2.79,1-4.12,1.41-4,2.83-8,4.24-11.89a58.7,58.7,0,0,1,2.57-5.95c1-2.06.9-3.27-1-4.73a41,41,0,0,0-4.75-3.28,1.54,1.54,0,0,0-2.31.49,8.93,8.93,0,0,0-1.55,3.4c-.25,1.82-1.54,3.27-1.41,5.33.13,2.31-1.28,4.74-2.06,7.16-.9,3-1.79,6.07-2.69,9.1-.26.73-.52,1.46-.78,2.31a5.63,5.63,0,0,0,1.29.36c-1,.73-1.93,1.34-2.83,2.07.52,1,.9,1.82,1.42,2.79-.52-.13-.9-.25-1.29-.37-.13.12-.26.24-.38.37a11.26,11.26,0,0,1,.64,1c-.77.48-1.42.85-2.06,1.21v.36l2.32-.36c.89,1.7.89,1.82-1.55,3.76.13-1,.26-1.82.39-2.67h-.39L242.7,355h.38c-.13.73-.13,1.94-.51,2.07-1,.48-.77,1.09-.52,1.7a3.41,3.41,0,0,1,.14,1c.48-.1.93-.19,1.53-.29-.36.7-.73,1.29-1.21,2.18-.2-.46-.33-.82-.46-1.15a3,3,0,0,1-1.41,1.52,1.18,1.18,0,0,1,.54.64,7.42,7.42,0,0,1,.62-.64c.13-.12.51,0,.77.12s.13.24.13.37l-.13.24-1.16,2.55c-1.23-.47-.22-1.38-.36-2.1a1.46,1.46,0,0,1-.54.4,3,3,0,0,1,.13,1.45c-.07.35-.13.7-.2,1l.84-.79c.13.36.52.72.52,1.09h-.26a.43.43,0,0,0,0,.11l-1.1-.34-.09.46.82.25.36-.33a28.2,28.2,0,0,1-.74,2.76h-.39l-.37-1.24c-.09.33-.17.67-.27,1a6.58,6.58,0,0,1-1.16,2.06c-.12.12-.77-.12-1.15-.24l-1.16-.37-.38.73H237a1.48,1.48,0,0,1-1,.37c-2.31.36-4.49,1.82-7.06.72-.13,0-.39.37-.78.73a11.12,11.12,0,0,0-3.08.73c-1.93.85-3.85.36-5.78.73-1.29.24-2.7,0-4,.36-4.37,1.34-8.73,2.67-13.1,4.13-3.47,1.21-3.22,1.57-.9,4.24a6.57,6.57,0,0,0,2.82,2.07,13.13,13.13,0,0,0,4.37-.25c4.24-.85,8.48-1.82,12.73-2.79,2.57-.6,5.14-1.45,7.71-2.06s5.39-1.09,8.09-1.58a1.75,1.75,0,0,1,.77.25s0,.36-.13.48a1.46,1.46,0,0,1-.64.12c.13.49.39,1,.26,1.34-.39.85-1,1.57-.9,2.67a14,14,0,0,1-.12,2.54c.16-.35.52-.56,1.15-.72a4,4,0,0,0-.9,1.33c-.13.37.13.85.25,1.34l.26.12h-.38a7.09,7.09,0,0,1-.39-1.1v2.07c-.51.12-.9.12-1,.36s0,.61.13.61c1.16.36.77.73.26,1.21-.13.12-.39.37-.39.49.65,1,.26,1.82-.38,2.67-.13.24,0,.72,0,1.09.13,1.09.38,2.18.51,3.27a54.06,54.06,0,0,0,.77,6.31,9.16,9.16,0,0,0,3.22,5.22l4.62,3.28a4,4,0,0,0,5.27-.25,13.83,13.83,0,0,0,1.67-2.18l1.54-2.18-.38-.37c-.39.12-.77.24-1.42.49a3.82,3.82,0,0,1,.39-1c.51-1,1-1.94,1.54-2.92l.39-.72c.9-1.34,1.92-2.67,2.82-4a4.06,4.06,0,0,0,.39-1.33,73.21,73.21,0,0,1-7.45,8.73l-.39-.36,1.93-2.18a.75.75,0,0,0-.64.24c-1.16,1.09-2.32,2.18-3.6,3.27-.64.49-1.29.61-1.54-.48a18.48,18.48,0,0,1-.9-2.55,75.4,75.4,0,0,1-.52-7.64c0-2.55.64-5.1.77-7.65,0-1.45,1.16-2.91.13-4.36-.13-.13.13-.49.26-.73a28.1,28.1,0,0,0,1-2.91c.38-1.82.77-3.64,1-5.46.13-1.1.9-1.34,1.93-1.34a4,4,0,0,0,1.16-.24c2.31-.37,4.63-.85,6.94-1.21,3.34-.49,6.68-.85,10-1.34,1.54-.24,3.09-.73,4.63-.85,3.6-.36,7.19-.61,10.79-.85l.36,0c-1.48,5.36-2.91,11-4.19,16.64a6.5,6.5,0,0,0-1.18-.41,25,25,0,0,1,.11,5.31c-.18.84-.35,1.67-.51,2.5a11.34,11.34,0,0,1-1,2.26l.51.29c-.32,1.67-.62,3.34-.91,5a8.44,8.44,0,0,0-.76,1.5,4.52,4.52,0,0,1,.47.25l-.09.61-.64.24-.25-.25c1.13,1.56.2,3.2.18,4.79-.28,2.09-.53,4.16-.73,6.21a5.38,5.38,0,0,1-.61,1.5,16.69,16.69,0,0,0,.21,3.37c-.07,1-.12,2-.16,3a4.84,4.84,0,0,1-.69,1.41c.17.16.45.32.63.48,0,.68,0,1.35,0,2a7.22,7.22,0,0,0,0,1.23c0,.51,0,1,0,1.53-1.23,1.08-.1,2.16,0,3.24a8.58,8.58,0,0,0,.13,1.82c.13,1-.13,2.18.38,2.79.78,1,1,1.58,0,2.43a5.05,5.05,0,0,1,.9.72c-.12.49-.38,1-.25,1.34a43.5,43.5,0,0,0,2.18,5.7c.64,1.34,1.29,2.79,2.83,3.52a21.15,21.15,0,0,1,2.31,1.34c.9.48,2.06.12,2.19-.73,0-.37-.26-.73-.13-1.1.51-1.94.25-3.51-2.32-4.12h1.16c-.38-1.46-.77-2.79-1-4.13-.25-1.82-.38-3.63-.64-5.46v-.72c0-1.82.13-3.64,0-5.46,0,0,4.47-31.55,10.71-61.53,1.14-.36,2.29-.72,3.43-1,2.05-.36,4.24-.48,6.29-1C301.3,368.32,301.81,367.35,302.32,366.74Zm-4.49-40.28h.38c-.1.39-.21.78-.32,1.16l-1.15.21ZM278.69,435.05l-.33-1.43.57-.52A6.42,6.42,0,0,1,278.69,435.05Z"/><path class="cls-1" d="M241.18,362.65c-.13.18-.21.34-.15.45s0,.06,0,.09A.57.57,0,0,0,241.18,362.65Z"/><path class="cls-1" d="M291.4,337.38h-.13a20.41,20.41,0,0,0-.51,2.31C292.17,338.72,292.3,338.23,291.4,337.38Z"/><path class="cls-1" d="M403.33,358h-.77c-.26.85-.51,1.7-.77,2.54h.39C402.56,359.71,403,358.86,403.33,358Z"/><path class="cls-1" d="M397.94,373.42c0,.12.12.24.12.36h.26c.26-1,.51-1.94.77-2.91h-.38C398.45,371.72,398.19,372.57,397.94,373.42Z"/><path class="cls-1" d="M413.61,399.14a12.23,12.23,0,0,0,3.73-3.89l-.26-.12-.38-.36Z"/><path class="cls-1" d="M397,378.51l.25.12.39-2.55C396.39,377.3,396.26,378,397,378.51Z"/><path class="cls-1" d="M429.81,322.34l.12-1.22a3,3,0,0,1-.25-1.45,8.3,8.3,0,0,0-3.34-7.16,51.45,51.45,0,0,1-4.5-2.55c-1-.73-1.42-.24-1.67.49-1.42,3.15-2.7,6.43-4.12,9.58-.77,1.82-.64,4-2.44,5.34a.42.42,0,0,0-.13.36c-.12.73-.12,1.46-.25,2.19a6.86,6.86,0,0,1-.9,2.55c-.9,1.45-1,3.27-1.54,4.85-1.29,3.88-2.7,7.76-4,11.65-1.28,4.12-2.44,8.37-3.72,12.61l-2.7,8.74c-1,3.52-2.06,7.16-3.09,10.68-.51,1.7-1,3.39-1.54,5.34a17.14,17.14,0,0,0-.38-1.82H395a8.63,8.63,0,0,0,.13,1.82c.13.48.51,1,.51,1.45a11.31,11.31,0,0,1-.38,2.06c-.15.69-.29,1.37-.44,2.06-.39,0-.61-.1-.72,0l-3.86,2.18c-2.18,1.34-4.37,2.67-6.55,4.13a29.86,29.86,0,0,1-3.08,2.18c-.78.36-2.19-.12-2.06,1.46a1.89,1.89,0,0,0-.39.24c-1.28.61-2.57,1.09-3.72,1.7a20.23,20.23,0,0,1-8.23,2.91c-1,.12-2.31.48-2.95-.85-1.29-2.67-.77-5.34,0-8,.38-1.58.77-3.15,1.28-4.73a11,11,0,0,1,.64-1.82c.52.49,1.16.85,1.67,1.33a3.62,3.62,0,0,0,4.76.61c3-2.55,6-5.09,8.74-7.88,1.54-1.58,3.6-3,3.85-5.59,0-.12.13-.24.26-.36,1.8-.85,1.8-2.79,2.31-4.13s.26-3.51-.12-5.21c-.65-2.79-3.09-4.49-5.27-6.19a3.9,3.9,0,0,0-4.24-.49,38.35,38.35,0,0,0-6.3,3.28,19.88,19.88,0,0,0-4.5,4,58.45,58.45,0,0,0-4.5,6.31,31.26,31.26,0,0,0-1.92,3.52c-1.16,2.19-2.45,4.37-3.47,6.55a41.86,41.86,0,0,0-1.29,4.37,12.36,12.36,0,0,0,.51,9.34,48.46,48.46,0,0,0,2.4,4.92l-.34.42c-1.54,1.82-3.08,3.76-4.63,5.58-1.28,1.46-2.18,3.4-4.88,4.13.64-1.21,1.16-2.18,1.67-3.16h-.38c-1,1.22-2.06,2.43-3.35,3.89.78-.12,1-.12,1.68-.25-1.42,1.58-2.57,2.92-3.73,4.25l-.39-.36,2.32-2.55-.39-.37-5,5.1c-.64.73-2.31.61-2.44-.24a30,30,0,0,1-.9-5.83,47.93,47.93,0,0,1,1-7.52c.25-1.34.54-2.68.82-4,.53-1.86,4.81-16.77,9.23-30.87.14-.45.49-.8.61-1.27.64-2.06,1.29-4.12,2.06-6.18s1.54-3.76,2.05-5.7c.52-2.19,2.06-4.13,1.93-6.56,1.16-.85,1-2.18,1.42-3.27.25-.61.77-1.09,1-1.7.15-.37.27-.75.39-1.14h0v0c.2-.63.39-1.27.63-1.86a1.51,1.51,0,0,1,.64-.61c1.55-.85,3.47.48,5-.73,0,0,.12.24.25.24,1.16.33,2.1.06,2.37-.79l.65,0a1,1,0,0,0,.71.4c3.47.12,6.94.12,10.41.24,2.57.12,5.14.37,7.71.73,2.18.24,4.37,1.09,6.55,1.09s4,1.34,6,1.82a2.39,2.39,0,0,0,0-3.52l.52-1.57c-.13-.13-.26-.25-.26-.37.13-1.94-1.54-2.18-3-2.42-1.67-.37-3.34-.49-5-.73a1.25,1.25,0,0,1,.13-.61c-1.41.73-2.44.61-2.95-.24a7.24,7.24,0,0,1-1.55.36,93,93,0,0,0-10.7-.46l-.48,0-.11,0c-7.17,0-14,.46-14,.46a9.74,9.74,0,0,1,.51-1.82c1.67-4.49,3.47-9,5.14-13.47a8.16,8.16,0,0,0,1-3.76c-.13-1.33-.51-2.91-2.31-3.52a14.33,14.33,0,0,1-2.45-1.09c-1.67-.85-2.69-.36-2.82,1.46a5.68,5.68,0,0,1-.26,1.45c-.77,2.07-1.41,4.25-2.31,6.31-.65,1.46,0,3.4-1.8,4.49-.13.12-.26.61-.13.73.9,1.34-.39,2.31-.64,3.4a61.66,61.66,0,0,1-2.57,6.67,4.13,4.13,0,0,1-1.16,1.7,7.42,7.42,0,0,1-2.31.49,20.33,20.33,0,0,1-2.7.12v-.37a9.18,9.18,0,0,1-2.7,1.34,10.79,10.79,0,0,1-3.08-.61c.25,1.58-.65,2.06-3,1.58.9-.25,1.67-.49,2.57-.73-1.28-.61-4.88,0-5.91.73A5.8,5.8,0,0,1,333,343a5.19,5.19,0,0,1-1,.37,4.17,4.17,0,0,1,1.16.36v.36a12.58,12.58,0,0,1-2.06-.12l-.51.49c-1.16-.12-2.06-.24-3-.37-.26.13-.64.61-1,.61-1.8,0-3.21,1-5.14,1s-4.11,1-6,1.7-3.73,1.7-5.52,2.55c-1.42.6-3,1.09-4.37,1.82-.39.24-.9,1-.78,1.33a17.84,17.84,0,0,0,1.29,3.28c.39.73.9.85,1.67.36a61.09,61.09,0,0,1,5.4-3c1.67-.73,3.47-1.21,5.14-1.82,3.21-1.21,6.42-2.43,9.76-3.4a69.35,69.35,0,0,1,7.33-1.45c1.28-.25,2.57-.73,3.86-.85,1,0,1.54-.25,1.67-.73l9.56-.72-.1.14c-.42.35-.73.49-.73.7s0,.38-.05.58c-.7,1.93-4.09,11.32-7.8,22.49-.45,1.25-.91,2.5-1.4,3.74-.38,1.08-.55,2.16-.87,3.24l0,.08a11.06,11.06,0,0,1-.38,1.05l.05,0-.57,1.8c-.53,1.55-1.07,3.09-1.58,4.65l-.6-.12c-1.54,1.46-3.73.24-5.27,1.58a4.57,4.57,0,0,0-1.28,0c-1.16.36-2.32.85-3.47,1.33a8.38,8.38,0,0,0-1,.37c.77-3.76,1.54-7.4,2.18-11,.26-1.7-.25-3.52.77-5.22.13-.12,0-.37-.12-.49-.9-1.7-1.55-3.64-2.83-5a46.24,46.24,0,0,0-6.56-5.46,16.93,16.93,0,0,0-3.72-1.58c-1.8,2.55-3.47,4.73-4.89,7-1.8,2.79-3.47,5.58-5.14,8.37-3.21,5.46-4.49,11.65-6.68,17.47-.9,2.31-1.54,4.73-2.57,7a14.14,14.14,0,0,0-1.16,7.28,6.09,6.09,0,0,0,1.16,3.4,41.42,41.42,0,0,0,5.91,5.46c2.57,1.94,4.5,1.57,6.81-.61a29.8,29.8,0,0,0,2.57-3c2.06-2.92,4.37-5.71,6.56-8.62.64-.85,1.67-1.58,1.28-2.91,0-.12.39-.49.65-.73s.38-.24.38-.36c0-1.7,1.29-2.67,2.57-3.52,2.44-1.7,5.4-2.79,7.58-5,.13-.12.26-.24.39-.24,1.15.37,1.67-.36,2.44-1,1.14-1.08,2.37-2.08,3.61-3.06-.45,1.42-.89,2.85-1.3,4.27q-1.55,5.1-2.7,10.2c-.51,2.3-.9,4.61-1.28,6.91-.12.8-.18,1.6-.23,2.39v0h0c-.05.89-.08,1.78-.15,2.67-.51,3.88,0,7.52,3.21,10.43.65.61,1.42,1.22,2.19,1.82a16.26,16.26,0,0,0,3.47,2.43c2.06.73,4.37,1.09,6.42-.49,1.29-1.09,3.09-1.7,3.35-3.64,0-.12.25-.24.38-.36a27.51,27.51,0,0,0,2.31-3c1.29-2.07,2.45-4.13,3.73-6.19.13-.12.13-.36.13-.61a13.32,13.32,0,0,1,.39-3.27,23.73,23.73,0,0,1,2.11-3.64,15.4,15.4,0,0,0,3.67,4.12c2.31,1.82,4.75,3.64,8,3.52a22.4,22.4,0,0,0,4-.73,16.21,16.21,0,0,0,3.34-1.58,9.73,9.73,0,0,0,1.41-1.09c2.19-1.45,4.37-2.79,6.56-4.24,1-.73,2.44-1.46,2.7-2.43.38-1.46,1.67-1.82,2.44-2.79.38-.49.9-.85,1.28-1.34.18-.2.34-.41.51-.61a24.58,24.58,0,0,0,.14,5.35c.77,3.88,3.08,6.91,6.17,9.7,2.31,2.07,4.62,2.31,7.45,1.34a2.85,2.85,0,0,0,1-.61c1.41-1.58,2.7-3.28,4.11-4.85.64-.73.9-1.22.13-1.82,2.44-3.16,4.88-6.19,7.32-9.22l-.38-.37a7.78,7.78,0,0,0-1.16.85c-1.54,1.34-2.57,3.4-5.14,3l1.16-2.19a3.08,3.08,0,0,0-.9.49c-1.93,2.06-3.73,4.24-5.78,6.18a34.74,34.74,0,0,1-4.89,3.52,1.31,1.31,0,0,1-1.15.28c-3.51-9.28,2.69-23.82,2.69-23.82,1.16-.72,1.42-1.94,1.93-3,1.42-3.15,3.09-6.19,4.63-9.22l4.24-7.64s1.95-3,4.52-7.87c.29-.49.59-1,.88-1.48a10.2,10.2,0,0,0,.55-1.32,117.17,117.17,0,0,0,8-20.45,1.55,1.55,0,0,1,.31-.06c.13,0,.26-.25.26-.37V332c.08-.33.17-.66.25-1,.67-.25.79-1.09.91-1.75.25-2.06.38-4.12.51-6.19C430.19,322.82,429.93,322.58,429.81,322.34Zm-62.72,61.39c.52-1.09,1.16-2.19,1.8-3.28a3.14,3.14,0,0,1,.52-.85c.89-.85,1.79-1.69,1.15-2.67,1-.85,2.19-1.33,2.44-2.18.9-2.18,2.83-3.4,4.63-4.73a37.67,37.67,0,0,1,3.73-2.31c.77-.48,1.15-.24,1.15.61a10.33,10.33,0,0,1-2.95,6.67c-.77.85-1.42,1.94-2.19,2.79-.51.49-1.28.73-1.93,1.22-1.54,1.21-3.08,2.54-4.62,3.76L367,385.67l-.38-.36c.25-.61.38-1.22.64-1.82Zm-7.58-42.1.17,0-.17.39Zm-4-7.77c0,1.82,0,3.64-1.29,5.1l.13-.37H354C354.5,337,355,335.44,355.53,333.86ZM330.76,346.1a6.58,6.58,0,0,1,3.18-1.32,32.31,32.31,0,0,0,4.11-1C337.3,344.87,333.56,345.92,330.76,346.1Zm9.73-2.05h-.26a6.94,6.94,0,0,1-1.54-.24v-.36a3.76,3.76,0,0,0,1.16,0c.38-.12.64-.49,1.28-1,.26.6.39,1,.52,1.33A4,4,0,0,1,340.49,344.05Zm9.64-1.7a11.28,11.28,0,0,1-3,.61v.12a31.91,31.91,0,0,1-3.47.61,4.25,4.25,0,0,1-1.15-.36v-.73c2.18-.25,4.37-.37,6.55-.73.51-.12.9-.61,1.41-1l.39.36C350.64,341.63,350.51,342.23,350.13,342.35Zm-36.88,21.12-.13.36h.39l-7.72,13.1-.38-.36C307.85,372.08,310,367.47,313.25,363.47ZM301.3,408.36l-.13-.24c-.52-5.95,2.44-10.8,3.85-16,2.45,1.34,4.76,2.55,7.2,3.88C308.88,400.11,305.92,404.72,301.3,408.36Zm18.27-25q-.21.48-.39,1v0h0a24.67,24.67,0,0,1-1.42,3.23,4.23,4.23,0,0,1-2.06,1.46c-2.06.48-4.11.73-6.17,1.09-1,.12-1.54-.24-1.41-1.21a12.89,12.89,0,0,1,.51-3c1.16-2.91,2.83-5.7,3.47-8.73.39-1.7,1.67-2.91,1.8-4.61.13-.61.9-1.22,1.29-1.82,1.28-1.82,2.44-3.64,3.72-5.46a17.3,17.3,0,0,1,2.19-2.19,16.43,16.43,0,0,1,1.53,7.56c0,.13-.43,2.52-1.06,5.42h-.22c-.25.85-.51,1.7-.77,2.55H321c0-.08.05-.16.07-.23A47.72,47.72,0,0,1,319.57,383.39Zm5.24-.75a28.06,28.06,0,0,1-1.8,4.61c-.25.48-1.28.6-1.92.85l-.39-.37c.64-1.57,1.42-3.15,2.06-4.85.25-.61.25-1.21.51-1.82s.64-1,.9-1.46a1.62,1.62,0,0,0,.26-.72,6.08,6.08,0,0,1-.39-1.46c.26-3,.52-6.07.77-9.22,1,1.7,1.42,3.27-.12,5.09a7.83,7.83,0,0,1,1.54-.12c-.39,2.31-.77,4.49-1.16,6.68,0,.12,0,.36-.13.36l.39-.12C324.3,380.82,325.07,381.79,324.81,382.64Zm6.68,28.75,0-.14v.06ZM336.56,385c0-.17.05-.35.07-.52h0l.06.05Zm.16-.52h-.08l.1-.08Zm.33-1.28c.24-.71.47-1.42.71-2.12l-.68,2.18ZM390,393.8c-.49.69-1.1.61-1.82,0l1.82-.34Zm4.56-2.59c-.82.51-1.71,1-2.51,1.38l-.38-.37c1-.68,1.94-1.38,3.13-2.16Zm2.57-1.8-.42.3c.07-.58.15-1.15.23-1.73h.38C397.23,388.45,397.17,388.93,397.1,389.41Zm2.25-8.59H399l-.38-.37,1.54-2.91h.39C400.12,378.63,399.73,379.72,399.35,380.82Zm1.54-5.22h-.38c.12-1,.25-1.94.38-2.91h.77C401.4,373.66,401.15,374.63,400.89,375.6ZM406.16,358h-.39c.26-1,.52-1.94.9-3.16l.13-.12c.26.61.39,1.09.52,1.46Zm19-31.54c0,.11-3.76,21.12-13.45,34.13a2.48,2.48,0,0,0-.95.61,2.43,2.43,0,0,1-2.42.19c-.38-2.91,1-5.33,1.93-7.88.13-.24-.13-.61,0-.73a27,27,0,0,1,.9-2.91c.13-.49.26-1.09.64-1.34,1-.72,1.55-1.33.9-2.54-.12-.37.65-1.1,1.16-1.58a3.91,3.91,0,0,1,.13-1.22c.9-1.94,1.93-3.88,2.83-5.82s1.67-4,2.44-5.94c.9-2.19,1.8-4.37,2.57-6.56a18.48,18.48,0,0,1,.64-2.67c.51-1.33,1.29-2.54,2.06-4.12A19.14,19.14,0,0,1,425.16,326.47Z"/></svg>